<svg width="166" height="173" viewBox="0 0 166 173" fill="none" xmlns="http://www.w3.org/2000/svg">
<rect width="166" height="173" rx="39" fill="#505050"/>
<path d="M79.9338 42.7C77.4738 42.88 75.7938 42.94 70.2738 42.94H49.9938C45.8538 42.94 42.7338 42.82 40.2738 42.52V53.86C42.8538 53.56 45.1338 53.44 49.3338 53.44H66.4338C61.4538 60.34 59.1738 64.12 56.5938 69.52C53.0538 76.96 51.1338 83.26 49.3938 92.86H63.2538C64.7538 81.1 66.9138 73.9 71.7138 64.72C74.6538 59.02 76.3338 56.62 79.9338 52.66V42.7ZM100.54 52.6H114.46C118.3 52.6 121.06 52.72 124.24 53.02V42.52C121.84 42.82 119.62 42.94 114.34 42.94H96.4C93.52 42.94 92.92 42.94 90.4 42.82C90.34 45.1 90.28 46.54 90.16 47.8L88.54 66.52C88.36 68.2 88.18 69.64 87.94 71.44L99.1 72.52C100.42 69.58 102.88 68.08 106.66 68.08C111.7 68.08 114.94 71.2 114.94 76C114.94 80.8 111.58 83.98 106.54 83.98C102.22 83.98 99.7 82.12 98.68 78.16L86.62 80.02C87.52 83.14 88.24 84.88 89.62 86.74C93.1 91.54 99.04 94.12 106.6 94.12C119.32 94.12 126.88 87.28 126.88 75.76C126.88 70.72 125.38 66.82 122.38 63.76C119.2 60.52 114.82 58.84 109.48 58.84C105.58 58.84 102.46 59.74 99.76 61.72C99.88 60.7 99.94 60.1 99.94 59.8L100.54 52.6Z" fill="#E3E3E3"/>
<path d="M51.5572 127.88L51.5172 126.96C50.8772 126.88 50.0772 126.72 49.1172 126.48C48.7172 126.107 48.5172 125.56 48.5172 124.84C48.5172 124.6 48.5572 124.48 48.6372 124.48C48.7439 124.48 48.9172 124.507 49.1572 124.56C49.7172 124.747 50.4905 124.893 51.4772 125C51.3705 122.973 51.1439 120.933 50.7972 118.88C50.4772 116.8 50.1839 115.227 49.9172 114.16L49.5172 112.56L52.9972 110.92L54.0372 111.56C54.4372 113.933 54.6372 116.28 54.6372 118.6C54.6372 120.92 54.5705 123.08 54.4372 125.08C58.0372 124.92 61.0239 124.307 63.3972 123.24C63.3705 122.68 63.3572 121.413 63.3572 119.44C63.3572 117.44 63.6105 114.813 64.1172 111.56L65.1572 110.92L68.5572 112.56C67.3305 115.707 66.7172 120.547 66.7172 127.08C66.7172 131.933 66.9172 135.987 67.3172 139.24C67.3172 139.32 67.2105 139.36 66.9972 139.36C66.3039 139.36 65.7839 139.16 65.4372 138.76C64.4772 133.88 63.8639 129.733 63.5972 126.32C60.7705 126.907 58.1705 127.2 55.7972 127.2H54.2772C53.9839 130.293 53.4639 134.08 52.7172 138.56C52.5305 138.773 52.2239 138.947 51.7972 139.08C51.3972 139.24 51.0505 139.32 50.7572 139.32C50.4905 139.32 50.3572 139.253 50.3572 139.12L50.4772 138.68C51.1972 136.04 51.5572 132.44 51.5572 127.88ZM83.2503 119.68L86.4903 118.28L87.4503 118.84C86.5703 121.427 86.1303 124.413 86.1303 127.8C86.1303 129.24 86.2503 131.24 86.4903 133.8C86.7303 136.36 86.957 138.093 87.1703 139C87.1703 139.08 86.9703 139.12 86.5703 139.12C86.1703 139.12 85.7836 138.933 85.4103 138.56C84.557 136.587 83.877 133.68 83.3703 129.84C82.2503 132.507 80.9036 134.68 79.3303 136.36C77.7836 138.04 76.3836 138.88 75.1303 138.88C72.7303 138.88 71.5303 137.373 71.5303 134.36C71.5303 132.627 71.877 130.96 72.5703 129.36C73.2636 127.76 74.197 126.36 75.3703 125.16C77.717 122.787 80.3436 120.96 83.2503 119.68ZM77.2903 134.08C78.1436 134.08 79.0903 133.4 80.1303 132.04C81.197 130.653 82.1436 128.707 82.9703 126.2C82.9436 125.827 82.9303 125.107 82.9303 124.04C82.9303 122.973 82.9436 122.187 82.9703 121.68C80.677 122.987 78.8236 124.387 77.4103 125.88C75.997 127.347 75.2903 129.08 75.2903 131.08C75.2903 133.08 75.957 134.08 77.2903 134.08ZM103.479 119.44L102.519 124.04C102.173 123.933 101.706 123.88 101.119 123.88C100.533 123.88 99.9727 124.067 99.4394 124.44C98.906 124.813 98.4127 125.453 97.9594 126.36C97.506 127.267 97.1194 128.213 96.7994 129.2C96.4794 130.187 96.1594 131.24 95.8394 132.36C95.5194 133.48 95.2527 134.413 95.0394 135.16C94.8527 135.88 94.466 137.027 93.8794 138.6C93.5327 139 93.0394 139.2 92.3994 139.2C92.186 139.2 92.0794 139.147 92.0794 139.04C92.7727 135.653 93.1194 132.293 93.1194 128.96C93.1194 125.6 92.706 122.373 91.8794 119.28L92.8394 118.6L96.0794 120.32C96.266 122.24 96.3594 123.933 96.3594 125.4V125.96C98.0127 122.093 100.106 119.667 102.639 118.68L103.479 119.44ZM114.883 111.04L118.083 109.52L119.083 110.16C118.043 113.68 117.523 117.987 117.523 123.08C117.523 128.147 118.123 133.467 119.323 139.04C119.323 139.173 119.217 139.24 119.003 139.24C118.31 139.24 117.763 139.013 117.363 138.56C116.723 136.08 116.11 133 115.523 129.32C114.43 132.12 113.083 134.413 111.483 136.2C109.883 137.987 108.363 138.88 106.923 138.88C105.777 138.88 104.91 138.48 104.323 137.68C103.763 136.853 103.483 135.667 103.483 134.12C103.483 132.573 103.817 130.907 104.483 129.12C105.177 127.333 106.39 125.507 108.123 123.64C109.857 121.747 111.99 120.24 114.523 119.12C114.497 118.507 114.483 117.467 114.483 116C114.483 114.507 114.617 112.853 114.883 111.04ZM115.043 125.84C114.83 123.813 114.697 122.293 114.643 121.28C112.963 122.027 111.537 123.013 110.363 124.24C108.283 126.453 107.243 128.747 107.243 131.12C107.243 133.093 107.91 134.08 109.243 134.08C110.123 134.08 111.097 133.36 112.163 131.92C113.257 130.48 114.217 128.453 115.043 125.84Z" fill="#FF0E0E"/>
</svg>
